<svg xmlns="http://www.w3.org/2000/svg">
<!-- Icone del sito Musica Peyron: griglia 48x48, tratto chiaro, accenti nei colori delle note.
     Uso: <svg class="ico" viewBox="0 0 48 48"><use href="icone.svg#ic-NOME"/></svg> -->
  <symbol id="ic-spartiti" viewBox="0 0 48 48"><path d="M9 5 H29 L38 14 V43 H9 Z" fill="none" stroke="#EAF2FF" stroke-width="2.2" stroke-linecap="round" stroke-linejoin="round"/><path d="M29 5 V14 H38" fill="none" stroke="#EAF2FF" stroke-width="1.8" stroke-linecap="round" stroke-linejoin="round"/><path d="M13 21.0 H34" stroke="#EAF2FF" stroke-width="1.1" stroke-linecap="round" opacity="0.55"/><path d="M13 25.2 H34" stroke="#EAF2FF" stroke-width="1.1" stroke-linecap="round" opacity="0.55"/><path d="M13 29.4 H34" stroke="#EAF2FF" stroke-width="1.1" stroke-linecap="round" opacity="0.55"/><path d="M13 33.6 H34" stroke="#EAF2FF" stroke-width="1.1" stroke-linecap="round" opacity="0.55"/><path d="M13 37.8 H34" stroke="#EAF2FF" stroke-width="1.1" stroke-linecap="round" opacity="0.55"/><ellipse cx="17.5" cy="35.7" rx="4.16" ry="3.20" transform="rotate(-22 17.5 35.7)" fill="#E21C48"/><path d="M21.18 35.1 V23.700000000000003" fill="none" stroke="#EAF2FF" stroke-width="1.8" stroke-linecap="round" stroke-linejoin="round"/><ellipse cx="24" cy="31.5" rx="4.16" ry="3.20" transform="rotate(-22 24 31.5)" fill="#FFF428"/><path d="M27.68 30.9 V19.5" fill="none" stroke="#EAF2FF" stroke-width="1.8" stroke-linecap="round" stroke-linejoin="round"/><ellipse cx="30.5" cy="27.3" rx="4.16" ry="3.20" transform="rotate(-22 30.5 27.3)" fill="#009C95"/><path d="M34.18 26.7 V15.3" fill="none" stroke="#EAF2FF" stroke-width="1.8" stroke-linecap="round" stroke-linejoin="round"/></symbol>
  <symbol id="ic-giochi" viewBox="0 0 48 48"><path d="M10 13 Q10 9 14 9 H34 Q38 9 38 13 V35 Q38 39 34 39 H14 Q10 39 10 35 Z" fill="none" stroke="#EAF2FF" stroke-width="2.2" stroke-linecap="round" stroke-linejoin="round"/><ellipse cx="17" cy="16" rx="3.38" ry="2.60" transform="rotate(-22 17 16)" fill="#E21C48"/><ellipse cx="31" cy="16" rx="3.38" ry="2.60" transform="rotate(-22 31 16)" fill="#F99D1C"/><ellipse cx="24" cy="24" rx="3.38" ry="2.60" transform="rotate(-22 24 24)" fill="#FFF428" stroke="#00000033" stroke-width="1"/><ellipse cx="17" cy="32" rx="3.38" ry="2.60" transform="rotate(-22 17 32)" fill="#009C95"/><ellipse cx="31" cy="32" rx="3.38" ry="2.60" transform="rotate(-22 31 32)" fill="#5E50A1"/></symbol>
  <symbol id="ic-schemi" viewBox="0 0 48 48"><path d="M9 13 H39" fill="none" stroke="#EAF2FF" stroke-width="1.4" stroke-linecap="round" stroke-linejoin="round"/><path d="M9 20 H39" fill="none" stroke="#EAF2FF" stroke-width="1.4" stroke-linecap="round" stroke-linejoin="round"/><path d="M9 27 H39" fill="none" stroke="#EAF2FF" stroke-width="1.4" stroke-linecap="round" stroke-linejoin="round"/><path d="M9 34 H39" fill="none" stroke="#EAF2FF" stroke-width="1.4" stroke-linecap="round" stroke-linejoin="round"/><path d="M9 11 V36" fill="none" stroke="#EAF2FF" stroke-width="3.2" stroke-linecap="round" stroke-linejoin="round"/><path d="M19 13 V34" fill="none" stroke="#EAF2FF" stroke-width="1.2" stroke-linecap="round" stroke-linejoin="round"/><path d="M29 13 V34" fill="none" stroke="#EAF2FF" stroke-width="1.2" stroke-linecap="round" stroke-linejoin="round"/><path d="M39 13 V34" fill="none" stroke="#EAF2FF" stroke-width="1.2" stroke-linecap="round" stroke-linejoin="round"/><circle cx="24" cy="20" r="3.4" fill="#009C95"/><circle cx="14" cy="27" r="3.4" fill="#F99D1C"/><circle cx="34" cy="34" r="3.4" fill="#CF3E96"/><path d="M5.5 13 l3 0" fill="none" stroke="#EAF2FF" stroke-width="0" stroke-linecap="round" stroke-linejoin="round"/><circle cx="5" cy="13" r="2.2" fill="none" stroke="#EAF2FF" stroke-width="1.5"/></symbol>
  <symbol id="ic-note-uno" viewBox="0 0 48 48"><g transform="rotate(-16 18 25)"><rect x="9" y="12" width="18" height="26" rx="3" fill="#E21C48"/><ellipse cx="18" cy="25" rx="6.8" ry="10.6" fill="#FBF3E2"/></g><g transform="rotate(12 29 21)"><rect x="20" y="8" width="18" height="26" rx="3" fill="#22C55E"/><ellipse cx="29" cy="21" rx="6.8" ry="10.6" fill="#FBF3E2"/><path d="M24 19 H34" stroke="#1F2430" stroke-width="0.7" opacity="0.8"/><path d="M24 21 H34" stroke="#1F2430" stroke-width="0.7" opacity="0.8"/><path d="M24 23 H34" stroke="#1F2430" stroke-width="0.7" opacity="0.8"/><path d="M24 25 H34" stroke="#1F2430" stroke-width="0.7" opacity="0.8"/><path d="M24 27 H34" stroke="#1F2430" stroke-width="0.7" opacity="0.8"/><ellipse cx="30.5" cy="21" rx="1.7" ry="1.3" transform="rotate(-20 30.5 21)" fill="#1F2430"/><path d="M32 20.6 V14.5" stroke="#1F2430" stroke-width="0.9"/><path d="M25.6 24.5 q-1.2 -4 0.6 -7 q1.5 2 -0.8 4.6 q-1.6 2 0.4 3.6" fill="none" stroke="#1F2430" stroke-width="0.8"/></g></symbol>
  <symbol id="ic-pianoforte" viewBox="0 0 48 48"><rect x="7" y="11" width="34" height="27" rx="3" fill="none" stroke="#EAF2FF" stroke-width="2.2"/><rect x="21.3" y="12.2" width="7.4" height="24.6" fill="#009C95"/><path d="M15.5 11 V38" fill="none" stroke="#EAF2FF" stroke-width="1.4" stroke-linecap="round" stroke-linejoin="round"/><path d="M24 11 V38" fill="none" stroke="#EAF2FF" stroke-width="1.4" stroke-linecap="round" stroke-linejoin="round"/><path d="M32.5 11 V38" fill="none" stroke="#EAF2FF" stroke-width="1.4" stroke-linecap="round" stroke-linejoin="round"/><rect x="13.2" y="11" width="4.6" height="15" rx="1" fill="#EAF2FF"/><rect x="21.7" y="11" width="4.6" height="15" rx="1" fill="#EAF2FF"/><rect x="30.2" y="11" width="4.6" height="15" rx="1" fill="#EAF2FF"/></symbol>
  <symbol id="ic-tonalita" viewBox="0 0 48 48"><path d="M6 12 H42" stroke="#EAF2FF" stroke-width="1.3" stroke-linecap="round" opacity="0.6"/><path d="M6 18 H42" stroke="#EAF2FF" stroke-width="1.3" stroke-linecap="round" opacity="0.6"/><path d="M6 24 H42" stroke="#EAF2FF" stroke-width="1.3" stroke-linecap="round" opacity="0.6"/><path d="M6 30 H42" stroke="#EAF2FF" stroke-width="1.3" stroke-linecap="round" opacity="0.6"/><path d="M6 36 H42" stroke="#EAF2FF" stroke-width="1.3" stroke-linecap="round" opacity="0.6"/><g transform="translate(15 12) scale(1.45)" stroke="#E21C48" stroke-linecap="round"><path d="M-1.2 -4.5 V4.8" stroke-width="1.5"/><path d="M1.6 -5 V4.3" stroke-width="1.5"/><path d="M-3 -1 L3.4 -2.4" stroke-width="2.1"/><path d="M-3 2.6 L3.4 1.2" stroke-width="2.1"/></g><g transform="translate(24 21) scale(1.45)" stroke="#F99D1C" stroke-linecap="round"><path d="M-1.2 -4.5 V4.8" stroke-width="1.5"/><path d="M1.6 -5 V4.3" stroke-width="1.5"/><path d="M-3 -1 L3.4 -2.4" stroke-width="2.1"/><path d="M-3 2.6 L3.4 1.2" stroke-width="2.1"/></g><g transform="translate(33 9) scale(1.45)" stroke="#BED958" stroke-linecap="round"><path d="M-1.2 -4.5 V4.8" stroke-width="1.5"/><path d="M1.6 -5 V4.3" stroke-width="1.5"/><path d="M-3 -1 L3.4 -2.4" stroke-width="2.1"/><path d="M-3 2.6 L3.4 1.2" stroke-width="2.1"/></g></symbol>
  <symbol id="ic-scale" viewBox="0 0 48 48"><path d="M4 11 H44" stroke="#EAF2FF" stroke-width="1.2" stroke-linecap="round" opacity="0.55"/><path d="M4 17 H44" stroke="#EAF2FF" stroke-width="1.2" stroke-linecap="round" opacity="0.55"/><path d="M4 23 H44" stroke="#EAF2FF" stroke-width="1.2" stroke-linecap="round" opacity="0.55"/><path d="M4 29 H44" stroke="#EAF2FF" stroke-width="1.2" stroke-linecap="round" opacity="0.55"/><path d="M4 35 H44" stroke="#EAF2FF" stroke-width="1.2" stroke-linecap="round" opacity="0.55"/><ellipse cx="9.0" cy="32" rx="4.29" ry="3.30" transform="rotate(-22 9.0 32)" fill="#BED958"/><ellipse cx="16.6" cy="29" rx="4.29" ry="3.30" transform="rotate(-22 16.6 29)" fill="#009C95"/><ellipse cx="24.2" cy="26" rx="4.29" ry="3.30" transform="rotate(-22 24.2 26)" fill="#5E50A1"/><ellipse cx="31.799999999999997" cy="23" rx="4.29" ry="3.30" transform="rotate(-22 31.799999999999997 23)" fill="#CF3E96"/><ellipse cx="39.4" cy="20" rx="4.29" ry="3.30" transform="rotate(-22 39.4 20)" fill="#E21C48"/></symbol>
  <symbol id="ic-flauto" viewBox="0 0 48 48"><g transform="rotate(42 24 24)"><path d="M20 2.5 H28 V9 L27 11.5 V45.5 Q24 47.5 21 45.5 V11.5 L20 9 Z" fill="none" stroke="#EAF2FF" stroke-width="2.6" stroke-linecap="round" stroke-linejoin="round"/><path d="M20 9 H28" fill="none" stroke="#EAF2FF" stroke-width="1.6" stroke-linecap="round" stroke-linejoin="round"/><circle cx="24" cy="17" r="2.3" fill="#009C95"/><circle cx="24" cy="22.5" r="2.3" fill="#009C95"/><circle cx="24" cy="28" r="2.3" fill="#009C95"/><circle cx="24" cy="34" r="2.3" fill="#EAF2FF"/><circle cx="24" cy="39.5" r="2.3" fill="#EAF2FF"/></g></symbol>
  <symbol id="ic-test" viewBox="0 0 48 48"><path d="M13 8 H35 Q38 8 38 11 V41 Q38 44 35 44 H13 Q10 44 10 41 V11 Q10 8 13 8 Z" fill="none" stroke="#EAF2FF" stroke-width="2.2" stroke-linecap="round" stroke-linejoin="round"/><path d="M19 5 H29 V11 H19 Z" fill="none" stroke="#EAF2FF" stroke-width="1.8" stroke-linecap="round" stroke-linejoin="round"/><ellipse cx="16" cy="19" rx="3.38" ry="2.60" transform="rotate(-22 16 19)" fill="#009C95"/><path d="M22 19 H33" fill="none" stroke="#EAF2FF" stroke-width="1.6" stroke-linecap="round" stroke-linejoin="round"/><ellipse cx="16" cy="28" rx="3.38" ry="2.60" transform="rotate(-22 16 28)" fill="#F99D1C"/><path d="M22 28 H33" fill="none" stroke="#EAF2FF" stroke-width="1.6" stroke-linecap="round" stroke-linejoin="round"/><ellipse cx="16" cy="37" rx="3.38" ry="2.60" transform="rotate(-22 16 37)" fill="#E21C48"/><path d="M22 37 H29" fill="none" stroke="#EAF2FF" stroke-width="1.6" stroke-linecap="round" stroke-linejoin="round"/></symbol>
  <symbol id="ic-acuto-grave" viewBox="0 0 48 48"><path d="M6 14 H42" stroke="#EAF2FF" stroke-width="1.1" stroke-linecap="round" opacity="0.5"/><path d="M6 19 H42" stroke="#EAF2FF" stroke-width="1.1" stroke-linecap="round" opacity="0.5"/><path d="M6 24 H42" stroke="#EAF2FF" stroke-width="1.1" stroke-linecap="round" opacity="0.5"/><path d="M6 29 H42" stroke="#EAF2FF" stroke-width="1.1" stroke-linecap="round" opacity="0.5"/><path d="M6 34 H42" stroke="#EAF2FF" stroke-width="1.1" stroke-linecap="round" opacity="0.5"/><ellipse cx="16" cy="12" rx="4.42" ry="3.40" transform="rotate(-22 16 12)" fill="#E21C48"/><ellipse cx="32" cy="37" rx="4.42" ry="3.40" transform="rotate(-22 32 37)" fill="#009C95"/><path d="M16 23 V31 M13 28 L16 31 L19 28" fill="none" stroke="#EAF2FF" stroke-width="1.8" stroke-linecap="round" stroke-linejoin="round"/><path d="M32 26 V18 M29 21 L32 18 L35 21" fill="none" stroke="#EAF2FF" stroke-width="1.8" stroke-linecap="round" stroke-linejoin="round"/></symbol>
  <symbol id="ic-recita" viewBox="0 0 48 48"><path d="M8 10 H40 Q43 10 43 13 V29 Q43 32 40 32 H20 L12 39 V32 H8 Q5 32 5 29 V13 Q5 10 8 10 Z" fill="none" stroke="#EAF2FF" stroke-width="2.2" stroke-linecap="round" stroke-linejoin="round"/><ellipse cx="14" cy="26" rx="3.64" ry="2.80" transform="rotate(-22 14 26)" fill="#E21C48"/><ellipse cx="21" cy="22" rx="3.64" ry="2.80" transform="rotate(-22 21 22)" fill="#F99D1C"/><ellipse cx="28" cy="18" rx="3.64" ry="2.80" transform="rotate(-22 28 18)" fill="#FFF428"/><ellipse cx="35" cy="14.5" rx="3.64" ry="2.80" transform="rotate(-22 35 14.5)" fill="#BED958"/></symbol>
  <symbol id="ic-rap" viewBox="0 0 48 48"><rect x="6.0" y="27" width="7" height="12" rx="2" fill="#E21C48"/><rect x="15.5" y="27" width="7" height="12" rx="2" fill="#EAF2FF"/><rect x="25.0" y="27" width="7" height="12" rx="2" fill="#F99D1C"/><rect x="34.5" y="27" width="7" height="12" rx="2" fill="#EAF2FF"/><path d="M9.5 21 V14" fill="none" stroke="#EAF2FF" stroke-width="2.2" stroke-linecap="round" stroke-linejoin="round"/><path d="M19.0 21 V18" fill="none" stroke="#EAF2FF" stroke-width="2.2" stroke-linecap="round" stroke-linejoin="round"/><path d="M28.5 21 V14" fill="none" stroke="#EAF2FF" stroke-width="2.2" stroke-linecap="round" stroke-linejoin="round"/><path d="M38.0 21 V18" fill="none" stroke="#EAF2FF" stroke-width="2.2" stroke-linecap="round" stroke-linejoin="round"/><path d="M5 43 H43" fill="none" stroke="#EAF2FF" stroke-width="1.4" stroke-linecap="round" stroke-linejoin="round"/></symbol>
  <symbol id="ic-leggi-nota" viewBox="0 0 48 48"><path d="M5 13.0 H43" stroke="#EAF2FF" stroke-width="1.2" stroke-linecap="round" opacity="0.55"/><path d="M5 18.5 H43" stroke="#EAF2FF" stroke-width="1.2" stroke-linecap="round" opacity="0.55"/><path d="M5 24.0 H43" stroke="#EAF2FF" stroke-width="1.2" stroke-linecap="round" opacity="0.55"/><path d="M5 29.5 H43" stroke="#EAF2FF" stroke-width="1.2" stroke-linecap="round" opacity="0.55"/><path d="M5 35.0 H43" stroke="#EAF2FF" stroke-width="1.2" stroke-linecap="round" opacity="0.55"/><path d="M7 30 q-3 -9 3 -16 q4 5 -2 11 q-3 4 2 8 q4 3 -1 6" fill="none" stroke="#EAF2FF" stroke-width="1.6" opacity="0.8"/><ellipse cx="28" cy="24" rx="5.20" ry="4.00" transform="rotate(-22 28 24)" fill="#5E50A1"/><path d="M32.60 23.4 V9" fill="none" stroke="#EAF2FF" stroke-width="1.8" stroke-linecap="round" stroke-linejoin="round"/></symbol>
  <symbol id="ic-figure-ritmiche" viewBox="0 0 48 48"><ellipse cx="10" cy="30" rx="5" ry="3.6" transform="rotate(-22 10 30)" fill="none" stroke="#EAF2FF" stroke-width="2"/><ellipse cx="23" cy="30" rx="4.6" ry="3.4" transform="rotate(-22 23 30)" fill="none" stroke="#EAF2FF" stroke-width="2"/><path d="M27.2 29.5 V13" fill="none" stroke="#EAF2FF" stroke-width="1.9" stroke-linecap="round" stroke-linejoin="round"/><ellipse cx="36" cy="30" rx="4.42" ry="3.40" transform="rotate(-22 36 30)" fill="#F99D1C"/><path d="M40.2 29.5 V13" fill="none" stroke="#EAF2FF" stroke-width="1.9" stroke-linecap="round" stroke-linejoin="round"/></symbol>
  <symbol id="ic-costruttore" viewBox="0 0 48 48"><path d="M6 12 V38" fill="none" stroke="#EAF2FF" stroke-width="2" stroke-linecap="round" stroke-linejoin="round"/><path d="M24 12 V38" fill="none" stroke="#EAF2FF" stroke-width="2" stroke-linecap="round" stroke-linejoin="round"/><path d="M42 12 V38" fill="none" stroke="#EAF2FF" stroke-width="2" stroke-linecap="round" stroke-linejoin="round"/><rect x="9" y="20" width="12" height="10" rx="2" fill="#009C95"/><rect x="27" y="20" width="12" height="10" rx="2" fill="none" stroke="#EAF2FF" stroke-width="1.6" stroke-dasharray="2.5 2.5"/><rect x="29" y="5" width="9" height="8" rx="2" fill="#F99D1C"/><path d="M33.5 14.5 V18" fill="none" stroke="#EAF2FF" stroke-width="1.6" stroke-linecap="round" stroke-linejoin="round"/></symbol>
  <symbol id="ic-dettato-ritmico" viewBox="0 0 48 48"><ellipse cx="10" cy="20" rx="3.90" ry="3.00" transform="rotate(-22 10 20)" fill="#E21C48"/><ellipse cx="19" cy="20" rx="3.90" ry="3.00" transform="rotate(-22 19 20)" fill="#E21C48"/><path d="M13.6 19.4 V7 H22.6 V19.4" fill="none" stroke="#EAF2FF" stroke-width="1.8" stroke-linecap="round" stroke-linejoin="round"/><path d="M13.6 9.5 H22.6" fill="none" stroke="#EAF2FF" stroke-width="3" stroke-linecap="round" stroke-linejoin="round"/><ellipse cx="31" cy="20" rx="3.90" ry="3.00" transform="rotate(-22 31 20)" fill="#F99D1C"/><path d="M34.6 19.4 V7" fill="none" stroke="#EAF2FF" stroke-width="1.8" stroke-linecap="round" stroke-linejoin="round"/><rect x="6" y="29" width="36" height="12" rx="3" fill="none" stroke="#EAF2FF" stroke-width="1.6" stroke-dasharray="3 2.5"/><path d="M12 35 H20" fill="none" stroke="#FFF428" stroke-width="1.6" stroke-linecap="round" stroke-linejoin="round"/></symbol>
  <symbol id="ic-imita-ritmo" viewBox="0 0 48 48"><circle cx="9" cy="15" r="3.6" fill="#E21C48"/><circle cx="19" cy="15" r="3.6" fill="#E21C48"/><circle cx="29" cy="15" r="3.6" fill="#EAF2FF"/><circle cx="39" cy="15" r="3.6" fill="#E21C48"/><circle cx="9" cy="33" r="3.6" fill="none" stroke="#EAF2FF" stroke-width="1.8" /><circle cx="19" cy="33" r="3.6" fill="none" stroke="#EAF2FF" stroke-width="1.8" /><circle cx="29" cy="33" r="3.6" fill="none" stroke="#EAF2FF" stroke-width="1.8" opacity="0.35"/><circle cx="39" cy="33" r="3.6" fill="none" stroke="#EAF2FF" stroke-width="1.8" /><path d="M42 19 q3 5 0 10 M39.5 26 L42 29 L44.5 26" fill="none" stroke="#EAF2FF" stroke-width="1.4" stroke-linecap="round" stroke-linejoin="round"/></symbol>
  <symbol id="ic-qualita-suono" viewBox="0 0 48 48"><path d="M10 20 V8 M7 11 L10 8 L13 11" fill="none" stroke="#EAF2FF" stroke-width="1.8" stroke-linecap="round" stroke-linejoin="round"/><path d="M28 9 L40 6 M28 9 L40 12" fill="none" stroke="#F99D1C" stroke-width="1.8" stroke-linecap="round" stroke-linejoin="round"/><path d="M7 33 H19" fill="none" stroke="#009C95" stroke-width="3.2" stroke-linecap="round" stroke-linejoin="round"/><path d="M28 33 q3 -6 6 0 q3 6 6 0" fill="none" stroke="#CF3E96" stroke-width="1.8" stroke-linecap="round" stroke-linejoin="round"/></symbol>
  <symbol id="ic-riconosci-strumento" viewBox="0 0 48 48"><path d="M16 41 q-8 0 -8 -8 q0 -5 4 -7 q-2 -6 3 -9 q5 -2 7 3 q4 -1 6 3 q3 5 -1 9 q2 9 -11 9 Z" fill="none" stroke="#EAF2FF" stroke-width="2.2" stroke-linejoin="round"/><circle cx="17.5" cy="30" r="3" fill="none" stroke="#EAF2FF" stroke-width="1.6"/><path d="M23 21 L35 9" fill="none" stroke="#EAF2FF" stroke-width="2.4" stroke-linecap="round" stroke-linejoin="round"/><path d="M33.5 7 l4 4" fill="none" stroke="#EAF2FF" stroke-width="2.6" stroke-linecap="round" stroke-linejoin="round"/><path d="M37 22.4 q2.7 3.6 0 7.2" fill="none" stroke="#5E50A1" stroke-width="1.6" stroke-linecap="round" stroke-linejoin="round"/><path d="M40.15 19.7 q4.5 6.3 0 12.6" fill="none" stroke="#5E50A1" stroke-width="1.6" stroke-linecap="round" stroke-linejoin="round"/></symbol>
  <symbol id="ic-dettato-melodico" viewBox="0 0 48 48"><path d="M5 10 H43" stroke="#EAF2FF" stroke-width="1.1" stroke-linecap="round" opacity="0.5"/><path d="M5 15 H43" stroke="#EAF2FF" stroke-width="1.1" stroke-linecap="round" opacity="0.5"/><path d="M5 20 H43" stroke="#EAF2FF" stroke-width="1.1" stroke-linecap="round" opacity="0.5"/><path d="M5 25 H43" stroke="#EAF2FF" stroke-width="1.1" stroke-linecap="round" opacity="0.5"/><path d="M5 30 H43" stroke="#EAF2FF" stroke-width="1.1" stroke-linecap="round" opacity="0.5"/><ellipse cx="13" cy="27.5" rx="3.90" ry="3.00" transform="rotate(-22 13 27.5)" fill="#FFF428"/><path d="M16.45 26.9 V15.5" fill="none" stroke="#EAF2FF" stroke-width="1.8" stroke-linecap="round" stroke-linejoin="round"/><ellipse cx="23" cy="22.5" rx="3.90" ry="3.00" transform="rotate(-22 23 22.5)" fill="#009C95"/><path d="M26.45 21.9 V10.5" fill="none" stroke="#EAF2FF" stroke-width="1.8" stroke-linecap="round" stroke-linejoin="round"/><ellipse cx="34" cy="17.5" rx="4" ry="3" transform="rotate(-22 34 17.5)" fill="none" stroke="#EAF2FF" stroke-width="1.6" stroke-dasharray="2 1.6"/><path d="M10 42 H38" fill="none" stroke="#EAF2FF" stroke-width="1.4" stroke-linecap="round" stroke-linejoin="round"/></symbol>
  <symbol id="ic-nomina-intervalli" viewBox="0 0 48 48"><path d="M5 12 H30" stroke="#EAF2FF" stroke-width="1.1" stroke-linecap="round" opacity="0.5"/><path d="M5 17 H30" stroke="#EAF2FF" stroke-width="1.1" stroke-linecap="round" opacity="0.5"/><path d="M5 22 H30" stroke="#EAF2FF" stroke-width="1.1" stroke-linecap="round" opacity="0.5"/><path d="M5 27 H30" stroke="#EAF2FF" stroke-width="1.1" stroke-linecap="round" opacity="0.5"/><path d="M5 32 H30" stroke="#EAF2FF" stroke-width="1.1" stroke-linecap="round" opacity="0.5"/><ellipse cx="12" cy="32" rx="4.29" ry="3.30" transform="rotate(-22 12 32)" fill="#E21C48"/><ellipse cx="22" cy="22" rx="4.29" ry="3.30" transform="rotate(-22 22 22)" fill="#009C95"/><path d="M34 33 H37 V21 H34" fill="none" stroke="#EAF2FF" stroke-width="1.8" stroke-linecap="round" stroke-linejoin="round"/><text x="41" y="30.5" text-anchor="middle" font-family="Fredoka, Arial Rounded MT Bold, Arial, sans-serif" font-weight="700" font-size="11" fill="#FFF428">5</text></symbol>
  <symbol id="ic-ascolta-intervalli" viewBox="0 0 48 48"><path d="M6 20.0 q3.0 4.0 0 8.0" fill="none" stroke="#EAF2FF" stroke-width="1.6" stroke-linecap="round" stroke-linejoin="round"/><path d="M9.5 17.0 q5.0 7.0 0 14.0" fill="none" stroke="#EAF2FF" stroke-width="1.6" stroke-linecap="round" stroke-linejoin="round"/><path d="M17 12 H43" stroke="#EAF2FF" stroke-width="1.1" stroke-linecap="round" opacity="0.45"/><path d="M17 17 H43" stroke="#EAF2FF" stroke-width="1.1" stroke-linecap="round" opacity="0.45"/><path d="M17 22 H43" stroke="#EAF2FF" stroke-width="1.1" stroke-linecap="round" opacity="0.45"/><path d="M17 27 H43" stroke="#EAF2FF" stroke-width="1.1" stroke-linecap="round" opacity="0.45"/><path d="M17 32 H43" stroke="#EAF2FF" stroke-width="1.1" stroke-linecap="round" opacity="0.45"/><ellipse cx="24" cy="32" rx="4.16" ry="3.20" transform="rotate(-22 24 32)" fill="#E21C48"/><ellipse cx="35" cy="22" rx="4.16" ry="3.20" transform="rotate(-22 35 22)" fill="#009C95"/></symbol>
  <symbol id="ic-ascolta-scala" viewBox="0 0 48 48"><path d="M6 20.0 q3.0 4.0 0 8.0" fill="none" stroke="#EAF2FF" stroke-width="1.6" stroke-linecap="round" stroke-linejoin="round"/><path d="M9.5 17.0 q5.0 7.0 0 14.0" fill="none" stroke="#EAF2FF" stroke-width="1.6" stroke-linecap="round" stroke-linejoin="round"/><path d="M17 12 H43" stroke="#EAF2FF" stroke-width="1.1" stroke-linecap="round" opacity="0.45"/><path d="M17 17 H43" stroke="#EAF2FF" stroke-width="1.1" stroke-linecap="round" opacity="0.45"/><path d="M17 22 H43" stroke="#EAF2FF" stroke-width="1.1" stroke-linecap="round" opacity="0.45"/><path d="M17 27 H43" stroke="#EAF2FF" stroke-width="1.1" stroke-linecap="round" opacity="0.45"/><path d="M17 32 H43" stroke="#EAF2FF" stroke-width="1.1" stroke-linecap="round" opacity="0.45"/><ellipse cx="22" cy="34.5" rx="3.64" ry="2.80" transform="rotate(-22 22 34.5)" fill="#E21C48"/><ellipse cx="28" cy="32.0" rx="3.64" ry="2.80" transform="rotate(-22 28 32.0)" fill="#F99D1C"/><ellipse cx="34" cy="29.5" rx="3.64" ry="2.80" transform="rotate(-22 34 29.5)" fill="#FFF428"/><ellipse cx="40" cy="27.0" rx="3.64" ry="2.80" transform="rotate(-22 40 27.0)" fill="#BED958"/></symbol>
  <symbol id="ic-ascolta-accordi" viewBox="0 0 48 48"><path d="M6 20.0 q3.0 4.0 0 8.0" fill="none" stroke="#EAF2FF" stroke-width="1.6" stroke-linecap="round" stroke-linejoin="round"/><path d="M9.5 17.0 q5.0 7.0 0 14.0" fill="none" stroke="#EAF2FF" stroke-width="1.6" stroke-linecap="round" stroke-linejoin="round"/><path d="M17 12 H43" stroke="#EAF2FF" stroke-width="1.1" stroke-linecap="round" opacity="0.45"/><path d="M17 17 H43" stroke="#EAF2FF" stroke-width="1.1" stroke-linecap="round" opacity="0.45"/><path d="M17 22 H43" stroke="#EAF2FF" stroke-width="1.1" stroke-linecap="round" opacity="0.45"/><path d="M17 27 H43" stroke="#EAF2FF" stroke-width="1.1" stroke-linecap="round" opacity="0.45"/><path d="M17 32 H43" stroke="#EAF2FF" stroke-width="1.1" stroke-linecap="round" opacity="0.45"/><ellipse cx="30" cy="32" rx="4.16" ry="3.20" transform="rotate(-22 30 32)" fill="#E21C48"/><ellipse cx="30" cy="27" rx="4.16" ry="3.20" transform="rotate(-22 30 27)" fill="#FFF428"/><ellipse cx="30" cy="22" rx="4.16" ry="3.20" transform="rotate(-22 30 22)" fill="#009C95"/></symbol>
  <symbol id="ic-nomina-triade" viewBox="0 0 48 48"><path d="M6 12 H42" stroke="#EAF2FF" stroke-width="1.1" stroke-linecap="round" opacity="0.5"/><path d="M6 17 H42" stroke="#EAF2FF" stroke-width="1.1" stroke-linecap="round" opacity="0.5"/><path d="M6 22 H42" stroke="#EAF2FF" stroke-width="1.1" stroke-linecap="round" opacity="0.5"/><path d="M6 27 H42" stroke="#EAF2FF" stroke-width="1.1" stroke-linecap="round" opacity="0.5"/><path d="M6 32 H42" stroke="#EAF2FF" stroke-width="1.1" stroke-linecap="round" opacity="0.5"/><ellipse cx="24" cy="32" rx="4.68" ry="3.60" transform="rotate(-22 24 32)" fill="#E21C48"/><ellipse cx="24" cy="27" rx="4.68" ry="3.60" transform="rotate(-22 24 27)" fill="#FFF428"/><ellipse cx="24" cy="22" rx="4.68" ry="3.60" transform="rotate(-22 24 22)" fill="#009C95"/><path d="M28.5 31.5 V9" fill="none" stroke="#EAF2FF" stroke-width="1.9" stroke-linecap="round" stroke-linejoin="round"/></symbol>
  <symbol id="ic-triadi-contesto" viewBox="0 0 48 48"><path d="M4 10 H44" stroke="#EAF2FF" stroke-width="1.0" stroke-linecap="round" opacity="0.45"/><path d="M4 15 H44" stroke="#EAF2FF" stroke-width="1.0" stroke-linecap="round" opacity="0.45"/><path d="M4 20 H44" stroke="#EAF2FF" stroke-width="1.0" stroke-linecap="round" opacity="0.45"/><path d="M4 25 H44" stroke="#EAF2FF" stroke-width="1.0" stroke-linecap="round" opacity="0.45"/><path d="M4 30 H44" stroke="#EAF2FF" stroke-width="1.0" stroke-linecap="round" opacity="0.45"/><ellipse cx="11" cy="30" rx="3.25" ry="2.50" transform="rotate(-22 11 30)" fill="#E21C48"/><ellipse cx="11" cy="25" rx="3.25" ry="2.50" transform="rotate(-22 11 25)" fill="#FFF428"/><ellipse cx="11" cy="20" rx="3.25" ry="2.50" transform="rotate(-22 11 20)" fill="#009C95"/><ellipse cx="24" cy="27.5" rx="3.25" ry="2.50" transform="rotate(-22 24 27.5)" fill="#BED958"/><ellipse cx="24" cy="22.5" rx="3.25" ry="2.50" transform="rotate(-22 24 22.5)" fill="#5E50A1"/><ellipse cx="24" cy="17.5" rx="3.25" ry="2.50" transform="rotate(-22 24 17.5)" fill="#E21C48"/><ellipse cx="37" cy="25" rx="3.25" ry="2.50" transform="rotate(-22 37 25)" fill="#009C95"/><ellipse cx="37" cy="20" rx="3.25" ry="2.50" transform="rotate(-22 37 20)" fill="#CF3E96"/><ellipse cx="37" cy="15" rx="3.25" ry="2.50" transform="rotate(-22 37 15)" fill="#F99D1C"/><text x="11" y="45" text-anchor="middle" font-family="Georgia, serif" font-weight="700" font-size="7.5" fill="#EAF2FF">I</text><text x="24" y="45" text-anchor="middle" font-family="Georgia, serif" font-weight="700" font-size="7.5" fill="#EAF2FF">IV</text><text x="37" y="45" text-anchor="middle" font-family="Georgia, serif" font-weight="700" font-size="7.5" fill="#EAF2FF">V</text></symbol>
  <symbol id="ic-costruisci-triade" viewBox="0 0 48 48"><path d="M6 12 H34" stroke="#EAF2FF" stroke-width="1.1" stroke-linecap="round" opacity="0.5"/><path d="M6 17 H34" stroke="#EAF2FF" stroke-width="1.1" stroke-linecap="round" opacity="0.5"/><path d="M6 22 H34" stroke="#EAF2FF" stroke-width="1.1" stroke-linecap="round" opacity="0.5"/><path d="M6 27 H34" stroke="#EAF2FF" stroke-width="1.1" stroke-linecap="round" opacity="0.5"/><path d="M6 32 H34" stroke="#EAF2FF" stroke-width="1.1" stroke-linecap="round" opacity="0.5"/><ellipse cx="19" cy="32" rx="4.55" ry="3.50" transform="rotate(-22 19 32)" fill="#E21C48"/><ellipse cx="19" cy="27" rx="4.55" ry="3.50" transform="rotate(-22 19 27)" fill="#FFF428"/><ellipse cx="19" cy="22" rx="4.4" ry="3.3" transform="rotate(-22 19 22)" fill="none" stroke="#009C95" stroke-width="1.7" stroke-dasharray="2 1.5"/><path d="M39 14 V26 M33 20 H45" fill="none" stroke="#009C95" stroke-width="2.4" stroke-linecap="round" stroke-linejoin="round"/></symbol>
  <symbol id="ic-identifica-accordi" viewBox="0 0 48 48"><path d="M13 9 H35" fill="none" stroke="#EAF2FF" stroke-width="3" stroke-linecap="round" stroke-linejoin="round"/><path d="M13.0 9 V40" fill="none" stroke="#EAF2FF" stroke-width="1.2" stroke-linecap="round" stroke-linejoin="round"/><path d="M18.5 9 V40" fill="none" stroke="#EAF2FF" stroke-width="1.2" stroke-linecap="round" stroke-linejoin="round"/><path d="M24.0 9 V40" fill="none" stroke="#EAF2FF" stroke-width="1.2" stroke-linecap="round" stroke-linejoin="round"/><path d="M29.5 9 V40" fill="none" stroke="#EAF2FF" stroke-width="1.2" stroke-linecap="round" stroke-linejoin="round"/><path d="M35.0 9 V40" fill="none" stroke="#EAF2FF" stroke-width="1.2" stroke-linecap="round" stroke-linejoin="round"/><path d="M13 17 H35" fill="none" stroke="#EAF2FF" stroke-width="1.2" stroke-linecap="round" stroke-linejoin="round"/><path d="M13 25 H35" fill="none" stroke="#EAF2FF" stroke-width="1.2" stroke-linecap="round" stroke-linejoin="round"/><path d="M13 33 H35" fill="none" stroke="#EAF2FF" stroke-width="1.2" stroke-linecap="round" stroke-linejoin="round"/><path d="M13 41 H35" fill="none" stroke="#EAF2FF" stroke-width="1.2" stroke-linecap="round" stroke-linejoin="round"/><circle cx="18.5" cy="21" r="2.9" fill="#E21C48"/><circle cx="29.5" cy="29" r="2.9" fill="#FFF428"/><circle cx="35" cy="29" r="2.9" fill="#009C95"/><circle cx="13" cy="5" r="1.8" fill="none" stroke="#EAF2FF" stroke-width="1.3"/></symbol>
  <symbol id="ic-memory-note" viewBox="0 0 48 48"><g transform="rotate(-10 16 24)"><rect x="7" y="11" width="18" height="26" rx="3" fill="#2D2A6E" stroke="#EAF2FF" stroke-width="1.6"/><path d="M11 16 l10 16 M21 16 l-10 16" stroke="#EAF2FF" stroke-width="0.9" opacity="0.5"/></g><g transform="rotate(9 31 22)"><rect x="22" y="9" width="18" height="26" rx="3" fill="#FBF3E2" stroke="#EAF2FF" stroke-width="1.6"/><ellipse cx="29" cy="26" rx="4.16" ry="3.20" transform="rotate(-22 29 26)" fill="#CF3E96"/><path d="M32.7 25.4 V14.5" stroke="#1F2430" stroke-width="1.4"/></g></symbol>
  <symbol id="ic-memory-strumenti" viewBox="0 0 48 48"><g transform="rotate(-10 16 24)"><rect x="7" y="11" width="18" height="26" rx="3" fill="#2D2A6E" stroke="#EAF2FF" stroke-width="1.6"/><path d="M11 16 l10 16 M21 16 l-10 16" stroke="#EAF2FF" stroke-width="0.9" opacity="0.5"/></g><g transform="rotate(9 31 22)"><rect x="22" y="9" width="18" height="26" rx="3" fill="#FBF3E2" stroke="#EAF2FF" stroke-width="1.6"/><path d="M28 31 q-3.5 0 -3.5 -3.5 q0 -2 1.6 -3 q-0.8 -2.6 1.4 -3.8 q2.2 -0.8 3 1.4 q1.8 -0.4 2.6 1.4 q1.2 2.2 -0.5 3.9 q0.8 3.6 -4.6 3.6 Z" fill="#F99D1C"/><path d="M30.5 23 L35.5 15" stroke="#1F2430" stroke-width="1.4" stroke-linecap="round"/></g></symbol>
  <symbol id="ic-propedeutici" viewBox="0 0 48 48"><ellipse cx="19" cy="34" rx="6.50" ry="5.00" transform="rotate(-22 19 34)" fill="#CF3E96"/><path d="M25.2 33 V12" fill="none" stroke="#EAF2FF" stroke-width="2.3" stroke-linecap="round" stroke-linejoin="round"/><path d="M25.2 14 q8 -6 12 2 q-7 3 -12 -2 Z" fill="#BED958"/><path d="M25.2 20 q-7 -5 -11 1 q6 3 11 -1 Z" fill="#009C95"/></symbol>
  <symbol id="ic-primi-brani-1" viewBox="0 0 48 48"><path d="M5 12 H43" stroke="#EAF2FF" stroke-width="1.1" stroke-linecap="round" opacity="0.5"/><path d="M5 17 H43" stroke="#EAF2FF" stroke-width="1.1" stroke-linecap="round" opacity="0.5"/><path d="M5 22 H43" stroke="#EAF2FF" stroke-width="1.1" stroke-linecap="round" opacity="0.5"/><path d="M5 27 H43" stroke="#EAF2FF" stroke-width="1.1" stroke-linecap="round" opacity="0.5"/><path d="M5 32 H43" stroke="#EAF2FF" stroke-width="1.1" stroke-linecap="round" opacity="0.5"/><ellipse cx="13" cy="27" rx="4.16" ry="3.20" transform="rotate(-22 13 27)" fill="#009C95"/><path d="M16.68 26.4 V14" fill="none" stroke="#EAF2FF" stroke-width="1.8" stroke-linecap="round" stroke-linejoin="round"/><ellipse cx="24" cy="24.5" rx="4.16" ry="3.20" transform="rotate(-22 24 24.5)" fill="#5E50A1"/><path d="M27.68 23.9 V11.5" fill="none" stroke="#EAF2FF" stroke-width="1.8" stroke-linecap="round" stroke-linejoin="round"/><ellipse cx="35" cy="22" rx="4.16" ry="3.20" transform="rotate(-22 35 22)" fill="#CF3E96"/><path d="M38.68 21.4 V9" fill="none" stroke="#EAF2FF" stroke-width="1.8" stroke-linecap="round" stroke-linejoin="round"/></symbol>
  <symbol id="ic-primi-brani-2" viewBox="0 0 48 48"><path d="M5 12 H43" stroke="#EAF2FF" stroke-width="1.1" stroke-linecap="round" opacity="0.5"/><path d="M5 17 H43" stroke="#EAF2FF" stroke-width="1.1" stroke-linecap="round" opacity="0.5"/><path d="M5 22 H43" stroke="#EAF2FF" stroke-width="1.1" stroke-linecap="round" opacity="0.5"/><path d="M5 27 H43" stroke="#EAF2FF" stroke-width="1.1" stroke-linecap="round" opacity="0.5"/><path d="M5 32 H43" stroke="#EAF2FF" stroke-width="1.1" stroke-linecap="round" opacity="0.5"/><g transform="translate(10 12) scale(0.9)" stroke="#EAF2FF" stroke-linecap="round"><path d="M-1.2 -4.5 V4.8" stroke-width="1.5"/><path d="M1.6 -5 V4.3" stroke-width="1.5"/><path d="M-3 -1 L3.4 -2.4" stroke-width="2.1"/><path d="M-3 2.6 L3.4 1.2" stroke-width="2.1"/></g><ellipse cx="20" cy="27" rx="4.03" ry="3.10" transform="rotate(-22 20 27)" fill="#009C95"/><ellipse cx="29" cy="22" rx="4.03" ry="3.10" transform="rotate(-22 29 22)" fill="#CF3E96"/><path d="M23.5 26.4 V12 H32.5 V21.4" fill="none" stroke="#EAF2FF" stroke-width="1.8" stroke-linecap="round" stroke-linejoin="round"/><path d="M23.5 14 H32.5" fill="none" stroke="#EAF2FF" stroke-width="3" stroke-linecap="round" stroke-linejoin="round"/><circle cx="38" cy="19.5" r="1.3" fill="#EAF2FF"/><circle cx="38" cy="24.5" r="1.3" fill="#EAF2FF"/><path d="M40.5 12 V32" fill="none" stroke="#EAF2FF" stroke-width="1.6" stroke-linecap="round" stroke-linejoin="round"/><path d="M43 12 V32" fill="none" stroke="#EAF2FF" stroke-width="2.6" stroke-linecap="round" stroke-linejoin="round"/></symbol>
  <symbol id="ic-diabelli" viewBox="0 0 48 48"><rect x="5" y="22" width="38" height="18" rx="2.5" fill="none" stroke="#EAF2FF" stroke-width="2.2"/><rect x="5.9" y="23.1" width="4.533333333333333" height="15.8" fill="#009C95"/><rect x="12.233333333333333" y="23.1" width="4.533333333333333" height="15.8" fill="#009C95"/><rect x="31.23333333333333" y="23.1" width="4.533333333333333" height="15.8" fill="#5E50A1"/><rect x="37.56666666666666" y="23.1" width="4.533333333333333" height="15.8" fill="#5E50A1"/><path d="M11.33 22 V40" fill="none" stroke="#EAF2FF" stroke-width="1.2" stroke-linecap="round" stroke-linejoin="round"/><path d="M17.67 22 V40" fill="none" stroke="#EAF2FF" stroke-width="1.2" stroke-linecap="round" stroke-linejoin="round"/><path d="M24.00 22 V40" fill="none" stroke="#EAF2FF" stroke-width="1.2" stroke-linecap="round" stroke-linejoin="round"/><path d="M30.33 22 V40" fill="none" stroke="#EAF2FF" stroke-width="1.2" stroke-linecap="round" stroke-linejoin="round"/><path d="M36.67 22 V40" fill="none" stroke="#EAF2FF" stroke-width="1.2" stroke-linecap="round" stroke-linejoin="round"/><circle cx="11" cy="14" r="3.2" fill="#009C95"/><circle cx="17.5" cy="11" r="3.2" fill="#009C95"/><circle cx="30.5" cy="11" r="3.2" fill="#5E50A1"/><circle cx="37" cy="14" r="3.2" fill="#5E50A1"/></symbol>
  <symbol id="ic-berens" viewBox="0 0 48 48"><rect x="5" y="26" width="38" height="15" rx="2.5" fill="none" stroke="#EAF2FF" stroke-width="2.2"/><path d="M12.60 26 V41" fill="none" stroke="#EAF2FF" stroke-width="1.2" stroke-linecap="round" stroke-linejoin="round"/><path d="M20.20 26 V41" fill="none" stroke="#EAF2FF" stroke-width="1.2" stroke-linecap="round" stroke-linejoin="round"/><path d="M27.80 26 V41" fill="none" stroke="#EAF2FF" stroke-width="1.2" stroke-linecap="round" stroke-linejoin="round"/><path d="M35.40 26 V41" fill="none" stroke="#EAF2FF" stroke-width="1.2" stroke-linecap="round" stroke-linejoin="round"/><text x="8.8" y="20" text-anchor="middle" font-family="Fredoka, Arial Rounded MT Bold, Arial, sans-serif" font-weight="700" font-size="9" fill="#E21C48">1</text><text x="16.4" y="20" text-anchor="middle" font-family="Fredoka, Arial Rounded MT Bold, Arial, sans-serif" font-weight="700" font-size="9" fill="#F99D1C">2</text><text x="24.0" y="20" text-anchor="middle" font-family="Fredoka, Arial Rounded MT Bold, Arial, sans-serif" font-weight="700" font-size="9" fill="#FFF428">3</text><text x="31.6" y="20" text-anchor="middle" font-family="Fredoka, Arial Rounded MT Bold, Arial, sans-serif" font-weight="700" font-size="9" fill="#BED958">4</text><text x="39.2" y="20" text-anchor="middle" font-family="Fredoka, Arial Rounded MT Bold, Arial, sans-serif" font-weight="700" font-size="9" fill="#009C95">5</text></symbol>
  <symbol id="ic-sonatina" viewBox="0 0 48 48"><rect x="5" y="28" width="38" height="13" rx="2.5" fill="none" stroke="#EAF2FF" stroke-width="2.2"/><path d="M10.43 28 V41" fill="none" stroke="#EAF2FF" stroke-width="1.2" stroke-linecap="round" stroke-linejoin="round"/><path d="M15.86 28 V41" fill="none" stroke="#EAF2FF" stroke-width="1.2" stroke-linecap="round" stroke-linejoin="round"/><path d="M21.29 28 V41" fill="none" stroke="#EAF2FF" stroke-width="1.2" stroke-linecap="round" stroke-linejoin="round"/><path d="M26.71 28 V41" fill="none" stroke="#EAF2FF" stroke-width="1.2" stroke-linecap="round" stroke-linejoin="round"/><path d="M32.14 28 V41" fill="none" stroke="#EAF2FF" stroke-width="1.2" stroke-linecap="round" stroke-linejoin="round"/><path d="M37.57 28 V41" fill="none" stroke="#EAF2FF" stroke-width="1.2" stroke-linecap="round" stroke-linejoin="round"/><g transform="rotate(-55 26 16)"><path d="M24 -2 H28 V2 L27.5 3 V30 Q26 31 24.5 30 V3 L24 2 Z" fill="none" stroke="#EAF2FF" stroke-width="2.2" stroke-linecap="round" stroke-linejoin="round"/><circle cx="26" cy="9" r="1.3" fill="#009C95"/><circle cx="26" cy="13" r="1.3" fill="#009C95"/><circle cx="26" cy="17" r="1.3" fill="#EAF2FF"/><circle cx="26" cy="22" r="1.3" fill="#EAF2FF"/></g></symbol>
  <symbol id="ic-strumenti" viewBox="0 0 48 48"><path d="M8 6 V42" fill="none" stroke="#EAF2FF" stroke-width="1" stroke-linecap="round" stroke-linejoin="round"/><rect x="6" y="6" width="8" height="36" rx="4" fill="none" stroke="#EAF2FF" stroke-width="2.2"/><circle cx="10" cy="12" r="1.9" fill="#009C95"/><circle cx="10" cy="18" r="1.9" fill="#009C95"/><circle cx="10" cy="24" r="1.9" fill="#EAF2FF"/><circle cx="10" cy="31" r="1.9" fill="#EAF2FF"/><circle cx="10" cy="37" r="1.9" fill="#EAF2FF"/><path d="M20 14 H42" fill="none" stroke="#EAF2FF" stroke-width="1.2" stroke-linecap="round" stroke-linejoin="round"/><path d="M20 22 H42" fill="none" stroke="#EAF2FF" stroke-width="1.2" stroke-linecap="round" stroke-linejoin="round"/><path d="M20 30 H42" fill="none" stroke="#EAF2FF" stroke-width="1.2" stroke-linecap="round" stroke-linejoin="round"/><path d="M20 38 H42" fill="none" stroke="#EAF2FF" stroke-width="1.2" stroke-linecap="round" stroke-linejoin="round"/><path d="M20 12 V40" fill="none" stroke="#EAF2FF" stroke-width="2.8" stroke-linecap="round" stroke-linejoin="round"/><path d="M31 14 V38" fill="none" stroke="#EAF2FF" stroke-width="1.1" stroke-linecap="round" stroke-linejoin="round"/><path d="M42 14 V38" fill="none" stroke="#EAF2FF" stroke-width="1.1" stroke-linecap="round" stroke-linejoin="round"/><circle cx="26" cy="22" r="2.7" fill="#F99D1C"/><circle cx="36.5" cy="30" r="2.7" fill="#E21C48"/></symbol>
  <symbol id="ic-chitarra" viewBox="0 0 48 48"><g transform="rotate(35 24 24)"><path d="M24 24 q-7 0 -7 6 q0 3 2 4.5 q-4 2 -4 6 q0 6.5 9 6.5 q9 0 9 -6.5 q0 -4 -4 -6 q2 -1.5 2 -4.5 q0 -6 -7 -6 Z" fill="none" stroke="#EAF2FF" stroke-width="2.2" stroke-linejoin="round"/><circle cx="24" cy="35.5" r="2.8" fill="#F99D1C"/><path d="M22 24.5 V3 H26 V24.5" fill="none" stroke="#EAF2FF" stroke-width="2" stroke-linecap="round" stroke-linejoin="round"/><path d="M21 4 H27" fill="none" stroke="#EAF2FF" stroke-width="3" stroke-linecap="round" stroke-linejoin="round"/></g></symbol>
  <symbol id="ic-ukulele" viewBox="0 0 48 48"><g transform="rotate(35 24 24)"><path d="M24 26 q-5.5 0 -5.5 4.5 q0 2.5 1.5 3.5 q-3 1.6 -3 4.6 q0 5.4 7 5.4 q7 0 7 -5.4 q0 -3 -3 -4.6 q1.5 -1 1.5 -3.5 q0 -4.5 -5.5 -4.5 Z" fill="none" stroke="#EAF2FF" stroke-width="2.2" stroke-linejoin="round"/><circle cx="24" cy="36.5" r="2.4" fill="#BED958"/><path d="M22.3 26.5 V10 H25.7 V26.5" fill="none" stroke="#EAF2FF" stroke-width="2" stroke-linecap="round" stroke-linejoin="round"/><path d="M21 4 H27 V10 H21 Z" fill="none" stroke="#EAF2FF" stroke-width="1.8" stroke-linecap="round" stroke-linejoin="round"/><circle cx="19.5" cy="6" r="1.2" fill="#EAF2FF"/><circle cx="19.5" cy="8.5" r="1.2" fill="#EAF2FF"/><circle cx="28.5" cy="6" r="1.2" fill="#EAF2FF"/><circle cx="28.5" cy="8.5" r="1.2" fill="#EAF2FF"/></g></symbol>
  <symbol id="ic-tastiera" viewBox="0 0 48 48"><rect x="5" y="13" width="38" height="24" rx="2.5" fill="none" stroke="#EAF2FF" stroke-width="2.2"/><rect x="18.566666666666663" y="14.1" width="4.533333333333333" height="21.8" fill="#5E50A1"/><path d="M11.33 13 V37" fill="none" stroke="#EAF2FF" stroke-width="1.2" stroke-linecap="round" stroke-linejoin="round"/><path d="M17.67 13 V37" fill="none" stroke="#EAF2FF" stroke-width="1.2" stroke-linecap="round" stroke-linejoin="round"/><path d="M24.00 13 V37" fill="none" stroke="#EAF2FF" stroke-width="1.2" stroke-linecap="round" stroke-linejoin="round"/><path d="M30.33 13 V37" fill="none" stroke="#EAF2FF" stroke-width="1.2" stroke-linecap="round" stroke-linejoin="round"/><path d="M36.67 13 V37" fill="none" stroke="#EAF2FF" stroke-width="1.2" stroke-linecap="round" stroke-linejoin="round"/><rect x="9.13" y="13" width="4.4" height="13" rx="1" fill="#EAF2FF"/><rect x="15.47" y="13" width="4.4" height="13" rx="1" fill="#EAF2FF"/><rect x="28.13" y="13" width="4.4" height="13" rx="1" fill="#EAF2FF"/><rect x="34.47" y="13" width="4.4" height="13" rx="1" fill="#EAF2FF"/></symbol>
  <symbol id="ic-basso" viewBox="0 0 48 48"><g transform="rotate(35 24 24)"><path d="M23 27 q-6 -1 -7.5 4 q-1 3 1 5.5 q-3 2.5 -2 6.5 q2 5 9.5 4.5 q7 -0.5 8 -6 q0.6 -3.5 -2.5 -5 q1.5 -2.5 0.3 -5 q-1.5 -3 -6.8 -4.5 Z" fill="none" stroke="#EAF2FF" stroke-width="2.2" stroke-linejoin="round"/><path d="M22.6 27 V1 H25.4 V27.5" fill="none" stroke="#EAF2FF" stroke-width="1.9" stroke-linecap="round" stroke-linejoin="round"/><circle cx="20.5" cy="2.5" r="1.3" fill="#EAF2FF"/><circle cx="20.5" cy="6" r="1.3" fill="#EAF2FF"/><circle cx="27.5" cy="2.5" r="1.3" fill="#EAF2FF"/><circle cx="27.5" cy="6" r="1.3" fill="#EAF2FF"/><path d="M20 38 H28" fill="none" stroke="#E21C48" stroke-width="1.8" stroke-linecap="round" stroke-linejoin="round"/></g></symbol>
  <symbol id="ic-note" viewBox="0 0 48 48"><ellipse cx="19" cy="32" rx="5.98" ry="4.60" transform="rotate(-22 19 32)" fill="#009C95"/><path d="M24.29 31.4 V12" fill="none" stroke="#EAF2FF" stroke-width="1.8" stroke-linecap="round" stroke-linejoin="round"/></symbol>
  <symbol id="ic-accordi" viewBox="0 0 48 48"><path d="M12 8 H36" fill="none" stroke="#EAF2FF" stroke-width="3" stroke-linecap="round" stroke-linejoin="round"/><path d="M12 8 V40" fill="none" stroke="#EAF2FF" stroke-width="1.3" stroke-linecap="round" stroke-linejoin="round"/><path d="M18 8 V40" fill="none" stroke="#EAF2FF" stroke-width="1.3" stroke-linecap="round" stroke-linejoin="round"/><path d="M24 8 V40" fill="none" stroke="#EAF2FF" stroke-width="1.3" stroke-linecap="round" stroke-linejoin="round"/><path d="M30 8 V40" fill="none" stroke="#EAF2FF" stroke-width="1.3" stroke-linecap="round" stroke-linejoin="round"/><path d="M36 8 V40" fill="none" stroke="#EAF2FF" stroke-width="1.3" stroke-linecap="round" stroke-linejoin="round"/><path d="M12 16 H36" fill="none" stroke="#EAF2FF" stroke-width="1.3" stroke-linecap="round" stroke-linejoin="round"/><path d="M12 24 H36" fill="none" stroke="#EAF2FF" stroke-width="1.3" stroke-linecap="round" stroke-linejoin="round"/><path d="M12 32 H36" fill="none" stroke="#EAF2FF" stroke-width="1.3" stroke-linecap="round" stroke-linejoin="round"/><path d="M12 40 H36" fill="none" stroke="#EAF2FF" stroke-width="1.3" stroke-linecap="round" stroke-linejoin="round"/><circle cx="18" cy="20" r="3" fill="#E21C48"/><circle cx="24" cy="28" r="3" fill="#FFF428"/><circle cx="30" cy="28" r="3" fill="#009C95"/></symbol>
<symbol id="ic-storia" viewBox="0 0 48 48"><g transform="translate(24 24) rotate(-38) scale(0.86) translate(-24 -23)"><path d="M24 44 C13.5 44 9 36.5 9 30 C9 22 15.5 16.5 24 16.5 C32.5 16.5 39 22 39 30 C39 36.5 34.5 44 24 44 Z" fill="none" stroke="#EAF2FF" stroke-width="2.2" stroke-linejoin="round"/><path d="M21.6 17 V4.5 H26.4 V17" fill="none" stroke="#EAF2FF" stroke-width="2" stroke-linejoin="round"/><path d="M21.8 4.6 L19.5 1.2 H28.5 L26.2 4.6" fill="#CF3E96" stroke="#EAF2FF" stroke-width="1.4" stroke-linejoin="round"/><circle cx="24" cy="29" r="4.2" fill="#5E50A1" stroke="#EAF2FF" stroke-width="1.2"/><path d="M22.6 8 V39.5 M24 8 V39.5 M25.4 8 V39.5" stroke="#EAF2FF" stroke-width="0.7" opacity="0.8"/><path d="M19.5 39.5 H28.5" stroke="#F99D1C" stroke-width="2.2" stroke-linecap="round"/></g></symbol>
<symbol id="ic-solfeggio" viewBox="0 0 48 48"><path d="M17.5 6 H30.5 L38 42 H10 Z" fill="none" stroke="#EAF2FF" stroke-width="2.2" stroke-linejoin="round"/><path d="M12.6 34 H35.4" stroke="#EAF2FF" stroke-width="1.6"/><path d="M24 33 L32.5 11" stroke="#EAF2FF" stroke-width="2" stroke-linecap="round"/><rect x="26.6" y="17.2" width="6" height="4.4" rx="1.2" transform="rotate(21 29.6 19.4)" fill="#E21C48"/><circle cx="24" cy="33" r="2" fill="#FFF428"/><path d="M15.5 38 H21 M27 38 H32.5" stroke="#EAF2FF" stroke-width="1.2" stroke-linecap="round" opacity="0.6"/></symbol>
</svg>
