<svg xmlns="http://www.w3.org/2000/svg" viewBox="0 0 220 220" width="220" height="220">
  <defs>
    <filter id="adesivo" x="-20%" y="-20%" width="140%" height="150%">
      <feMorphology in="SourceAlpha" operator="dilate" radius="5" result="bordo"/>
      <feFlood flood-color="#ffffff"/>
      <feComposite in2="bordo" operator="in" result="bianco"/>
      <feGaussianBlur in="bordo" stdDeviation="4" result="sfoc"/>
      <feOffset in="sfoc" dx="2" dy="5" result="spost"/>
      <feFlood flood-color="#1e1b4b" flood-opacity="0.35"/>
      <feComposite in2="spost" operator="in" result="ombra"/>
      <feMerge><feMergeNode in="ombra"/><feMergeNode in="bianco"/><feMergeNode in="SourceGraphic"/></feMerge>
    </filter>
    
  </defs>
  <g filter="url(#adesivo)">

    <path d="M150 30 L196 96 H176 L206 144 H184 L210 190 H90 L116 144 H94 L124 96 H104 Z" fill="#4FA83D" stroke="#2F6E25" stroke-width="4" stroke-linejoin="round"/>
    <rect x="144" y="190" width="14" height="20" fill="#8B5E34" stroke="#5B3A1E" stroke-width="3"/>
    <g transform="rotate(-35 90 130)">
      <rect x="84" y="24" width="14" height="96" rx="3" fill="#8B5E34" stroke="#4A2F17" stroke-width="3"/>
      <rect x="80" y="10" width="22" height="24" rx="5" fill="#1F2430"/>
      <path d="M86 40 h10 M86 56 h10 M86 72 h10 M86 88 h10" stroke="#E8D3A9" stroke-width="2"/>
      <path d="M60 120 q-10 -16 6 -20 q14 -2 20 8 q8 -4 16 -2 q14 -10 22 4 q8 16 -6 26 q16 18 0 34 q-22 18 -50 4 q-22 -16 -8 -38 Z" fill="#F99D1C" stroke="#A66912" stroke-width="4" stroke-linejoin="round"/>
      <rect x="80" y="128" width="22" height="8" rx="2" fill="#1F2430"/><rect x="80" y="146" width="22" height="8" rx="2" fill="#1F2430"/>
      <circle cx="116" cy="162" r="4" fill="#FFF428"/><circle cx="104" cy="172" r="4" fill="#FFF428"/>
    </g>
    <path d="M28 70 l14 -26 l-4 18 l14 -4 l-14 28 l4 -18 Z" fill="#FFF428" stroke="#B9A00E" stroke-width="2.5" stroke-linejoin="round"/>
  </g>
</svg>
