<svg xmlns="http://www.w3.org/2000/svg" viewBox="0 0 220 220" width="220" height="220">
  <defs>
    <filter id="adesivo" x="-20%" y="-20%" width="140%" height="150%">
      <feMorphology in="SourceAlpha" operator="dilate" radius="5" result="bordo"/>
      <feFlood flood-color="#ffffff"/>
      <feComposite in2="bordo" operator="in" result="bianco"/>
      <feGaussianBlur in="bordo" stdDeviation="4" result="sfoc"/>
      <feOffset in="sfoc" dx="2" dy="5" result="spost"/>
      <feFlood flood-color="#1e1b4b" flood-opacity="0.35"/>
      <feComposite in2="spost" operator="in" result="ombra"/>
      <feMerge><feMergeNode in="ombra"/><feMergeNode in="bianco"/><feMergeNode in="SourceGraphic"/></feMerge>
    </filter>
    
  </defs>
  <g filter="url(#adesivo)">

  <path d="M150 30 L196 96 H176 L206 144 H184 L210 190 H90 L116 144 H94 L124 96 H104 Z" fill="#4FA83D" stroke="#2F6E25" stroke-width="4" stroke-linejoin="round"/><rect x="144" y="190" width="14" height="20" fill="#8B5E34" stroke="#5B3A1E" stroke-width="3"/>
  <g transform="rotate(-28 86 128)">
    <path d="M86 70 C62 70 60 92 70 104 C58 112 56 140 70 152 C78 160 94 160 102 152 C116 140 114 112 102 104 C112 92 110 70 86 70 Z" fill="#C8742F" stroke="#7A4419" stroke-width="3"/>
    <path d="M76 112 q-4 8 0 16 M96 112 q4 8 0 16" fill="none" stroke="#5A2E0E" stroke-width="2.6" stroke-linecap="round"/>
    <rect x="80" y="118" width="12" height="5" rx="2" fill="#3B2412"/>
    <rect x="82" y="22" width="8" height="52" rx="3" fill="#2B1A0E"/>
    <path d="M86 24 c-8 -4 -8 -14 0 -16 c8 2 8 10 2 12" fill="#8B5E34" stroke="#5A2E0E" stroke-width="2"/>
    <path d="M84 30 V150 M88 30 V150" stroke="#F2E6CC" stroke-width="1"/>
  </g>
  <g transform="rotate(32 120 140)"><rect x="56" y="136" width="128" height="5" rx="2.5" fill="#8B5E34"/><rect x="56" y="134" width="128" height="2" fill="#F2E6CC"/><rect x="170" y="131" width="12" height="12" rx="2" fill="#3B2412"/></g>
  
  <g transform="translate(34 206) scale(0.62)"><rect x="9" y="-44" width="5" height="46" rx="2" fill="#5E50A1"/><ellipse cx="2" cy="2" rx="13" ry="9.5" transform="rotate(-20 2 2)" fill="#5E50A1" stroke="#1F2430" stroke-opacity="0.35" stroke-width="2"/></g><g transform="translate(192 52) scale(0.58)"><path d="M10 -44 v46" stroke="#E21C48" stroke-width="5" stroke-linecap="round"/><path d="M12 -44 q16 8 14 24 q-4 -10 -14 -12" fill="#E21C48"/><ellipse cx="2" cy="2" rx="13" ry="9.5" transform="rotate(-20 2 2)" fill="#E21C48"/></g>
  </g>
</svg>
