<svg xmlns="http://www.w3.org/2000/svg" viewBox="0 0 220 220" width="220" height="220">
  <defs>
    <filter id="adesivo" x="-20%" y="-20%" width="140%" height="150%">
      <feMorphology in="SourceAlpha" operator="dilate" radius="5" result="bordo"/>
      <feFlood flood-color="#ffffff"/>
      <feComposite in2="bordo" operator="in" result="bianco"/>
      <feGaussianBlur in="bordo" stdDeviation="4" result="sfoc"/>
      <feOffset in="sfoc" dx="2" dy="5" result="spost"/>
      <feFlood flood-color="#1e1b4b" flood-opacity="0.35"/>
      <feComposite in2="spost" operator="in" result="ombra"/>
      <feMerge><feMergeNode in="ombra"/><feMergeNode in="bianco"/><feMergeNode in="SourceGraphic"/></feMerge>
    </filter>
    
  </defs>
  <g filter="url(#adesivo)">

    <path d="M44 168 C 40 96, 110 46, 176 60" fill="none" stroke="#009C95" stroke-width="6" stroke-linecap="round" stroke-dasharray="2 14"/>
    <path d="M190 80 C 196 150, 130 196, 60 186" fill="none" stroke="#F99D1C" stroke-width="6" stroke-linecap="round" stroke-dasharray="2 14"/>
    <path d="M70 176 l-16 10 l14 12" fill="none" stroke="#F99D1C" stroke-width="6" stroke-linecap="round" stroke-linejoin="round"/>
    <g transform="rotate(-8 112 120)">
      <path d="M58 92 Q60 78 74 80 L118 96 L152 64 Q162 56 170 66 Q176 74 168 82 L124 128 Q114 138 104 130 Z" fill="#F7B733" stroke="#B9831A" stroke-width="4" stroke-linejoin="round"/>
      <path d="M70 88 L114 104 M160 70 L124 108" stroke="#FFE7A3" stroke-width="5" stroke-linecap="round"/>
      <circle cx="84" cy="96" r="4" fill="#E21C48"/><circle cx="100" cy="102" r="4" fill="#5E50A1"/><circle cx="140" cy="88" r="4" fill="#009C95"/><circle cx="152" cy="76" r="4" fill="#E21C48"/>
    </g>
    <g transform="translate(100 160) scale(0.9)"><rect x="9" y="-44" width="5" height="46" rx="2" fill="#CF3E96"/><ellipse cx="2" cy="2" rx="13" ry="9.5" transform="rotate(-20 2 2)" fill="#CF3E96" stroke="#1F2430" stroke-opacity="0.35" stroke-width="2"/></g>
  </g>
</svg>
